<?xml version="1.0" encoding="utf-8"?>
<!-- Generator: Adobe Illustrator 23.0.3, SVG Export Plug-In . SVG Version: 6.00 Build 0)  -->
<svg version="1.1" id="Layer_1" xmlns="http://www.w3.org/2000/svg" xmlns:xlink="http://www.w3.org/1999/xlink" x="0px" y="0px"
	 viewBox="0 0 23 23" style="enable-background:new 0 0 23 23;" xml:space="preserve">
<path d="M15.1,6.7l0.3,1.6c0,0.2,0.2,0.3,0.3,0.3c0.3,0,0.9,0.1,1.4-0.3c0.1-0.1,0.2-0.2,0.2-0.3l-0.1-3.5c0,0,0,0,0,0
	c0-0.1-0.1-0.6-0.7-1l0-0.1H18c0.2,0,0.4-0.2,0.4-0.4V2.4C18.4,2.2,18.2,2,18,2h-3.1c-0.2,0-0.4-0.2-0.4-0.4V0.9
	c0-0.2-0.2-0.4-0.4-0.4H9.6c-0.2,0-0.4,0.2-0.4,0.4v0.2c0,0.2-0.1,0.4-0.3,0.4C7.8,1.5,4.6,1.8,4.6,2.8c0,0,0,0.6,0.7,0.6l0.6,0
	c0.2,0,0.4,0.2,0.4,0.4l-0.9,4c0,0.2,0,0.3,0.2,0.4l0.5,0.3c0.1,0.1,0.2,0.2,0.2,0.3l0,0.4c0,0.1,0.1,0.3,0.2,0.3
	c0.2,0.1,0.4,0.1,0.6,0.1c0.1,0,0.2-0.1,0.2-0.2c0-0.1,0-0.1,0.1-0.2C7.5,9.1,7.6,9,7.8,9l1.6,0.1l0,0c0,0-3,2.7-3.6,13
	c0,0.2,0.2,0.4,0.4,0.4h11.3c0.2,0,0.4-0.2,0.4-0.4c0-1.6-0.1-8-3.5-12.9l0,0l0-0.7c0-0.2-0.2-0.4-0.4-0.4c-0.2,0-0.6-0.1-0.8-0.2
	c0,0,0,0,0,0c0,0,0,0,0-0.1c0,0,0-0.2,0-0.3c0-0.1,0.9,0,0.9,0c0.2,0,0.4-0.2,0.4-0.4V6.1c0-0.1,0.2-0.2,0.3-0.1l0.2,0.2
	C15,6.3,15,6.5,15.1,6.7z M10.5,7.4c0,0.1-0.1,0.3-0.3,0.3H8.9c-0.2,0-0.3-0.1-0.3-0.3L8.9,5c0-0.1,0.1-0.2,0.2-0.2l1-0.3
	c0.2,0,0.3,0.1,0.3,0.2L10.5,7.4L10.5,7.4z"/>
</svg>
