<?xml version="1.0" encoding="utf-8"?>
<!-- Generator: Adobe Illustrator 23.0.3, SVG Export Plug-In . SVG Version: 6.00 Build 0)  -->
<svg version="1.1" id="Layer_1" xmlns="http://www.w3.org/2000/svg" xmlns:xlink="http://www.w3.org/1999/xlink" x="0px" y="0px"
	 viewBox="0 0 1024 1024" style="enable-background:new 0 0 1024 1024;" xml:space="preserve">
<style type="text/css">
	.st0{display:none;}
	.st1{display:inline;}
	.st2{fill:#4D4D4D;}
	.st3{fill:#FFFFFF;}
</style>
<g class="st0">
	<g id="Layer_3" class="st1">
		<path class="st2" d="M811.3,131.8v-2.6c0-15-12.2-27.2-27.2-27.2H644.9c-1.3,0-2.4-1.1-2.4-2.4c0.1-3.2-0.5-9.2-4.9-17
			c-0.2-0.4-0.3-0.8-0.3-1.2V47.6c0-1.4-1.2-2.6-2.6-2.6h-15.8c-1.4,0-2.6-1.2-2.6-2.6v-3.8c0-1.4-1.2-2.6-2.6-2.6h-66.2
			c-1.2,0-2.2,1-2.2,2.2v5.5c0,1.3-1,2.3-2.3,2.2L505.5,45c-1.2,0-2.2-1-2.2-2.2v-4.6c0-1.2-1-2.2-2.2-2.2h-65.3
			c-1.4,0-2.5,1.1-2.5,2.5v5c0,1.4-1.1,2.5-2.5,2.5h-14c-1.4,0-2.5,1.1-2.5,2.5v23.1c0,1.4-1.1,2.5-2.4,2.6
			c-18.9,1.1-141.7,9-179.6,33.9c-41,27-8,52,10,52h57.3c0.4,0,0.7,0.3,0.7,0.7v0.4c0,0.4-0.4,0.8-0.8,0.7
			c-2.3-0.3-8.5-0.4-10.2,6.1c-2,8-9,46-9,46l0,0c0,0-2.5,7.4,3,9.5c1.1,0.4,1.8,1.5,1.7,2.7l-1.5,12.2c-0.1,0.9-0.9,1.7-1.8,1.8
			l-4.5,0.6c-1.1,0.1-2,1-2.3,2.1L264.3,293l0,0c-0.1,0.3-3.9,11,2,15c0,0,0,0,0,0.1c0,0.5,0,3.8,0,4.8c0,0.1,0,1.2-1.2,1.2h-2.8
			c0,0-5-0.3-5,5v14c0,1.2-0.8,2.2-2,2.4l-1.6,0.3c-0.9,0.2-1.6,0.8-2,1.6c-2.3,5.7-9.7,27.8,8.6,35.6l0,0c0,0,1.4,0.5,2.9,0.8
			c1.1,0.2,2,1.3,2,2.4c0,3.9,1.3,11.9,11.1,11.9h10.4c1.4,0,2.6,1.2,2.5,2.6l-1.8,31.1c0,0.8,0.3,1.6,1,2.1c4,3.1,19.2,13.3,38,8.2
			c0,0,7.5,0,10.7-28.1c0.2-1.6,1.6-2.5,3.1-2.1c5.5,1.4,17.8,3.5,21.9-4.2c0.2-0.4,0.3-0.8,0.5-1.3l0.1-0.4
			c0.4-1.1,1.5-1.9,2.7-1.8l50.7,3.7c1.3,0.1,2.4,1.1,2.5,2.4l0.5,4.3c0.1,1.7,0.2,3.3,0.3,4.9v1.3c0,0.7-0.3,1.4-0.8,2
			c-11.2,10.9-131.9,138.4-158.1,557.5c-0.6,9.6,7,17.7,16.6,17.7h487c9.2,0,16.6-7.4,16.7-16.6c0.3-67.4-8.6-328.1-153.8-557.1
			c-0.6-1,0.1-2.3,1.3-2.3l0,0c1.8,0,3.2-1.5,3.2-3.2v-26.5c0-1.8-1.5-3.2-3.2-3.2h-14.5c-1.8,0-3.2-1.5-3.2-3.2v-6.5
			c0-1.8-1.4-3.2-3.2-3.2c-5.5-0.2-17.1-1.2-24.8-7.2c-1.3-1-2.1-2.6-2.1-4.2v-7.6c0-1.7,1.3-3,3-3h50c1.7,0,3-1.3,3-3v-81.6
			c0-1,1.2-1.6,2-0.9c2.8,2.4,7.8,8,9.7,18c0.3,1.5,1.5,2.5,3,2.5h9.3c1.8,0,3.3,1.3,3.6,3l14,81.3c0.3,1.5,1.6,2.7,3.2,2.7h4.3
			c1.1,0,1.9,0.9,1.7,2l-1.4,11.2c-0.2,1.6,1,3,2.6,3.2c10.4,0.9,45.9,3.1,55.5-10.3c0.4-0.6,0.6-1.2,0.6-1.9v-4
			c0-1.2-0.7-2.3-1.8-2.9l-5-2.5c-0.4-0.2-0.4-0.9,0.1-1l3.8-1.1c1.1-0.3,1.9-1.3,1.9-2.5V352c0-1.2,0.6-2.3,1.7-2.9
			c5.7-3.5,23.3-16.6,12.9-39.3c-1.3-2.9-3.3-5.4-5.8-7.3l-17.5-13.7c-1.4-1.1-2.3-2.7-2.5-4.5l-1.5-14.1c-0.1-1.2,0.8-2.2,1.9-2.3
			l13.4-0.7c1.4-0.1,2.4-1.2,2.3-2.6l-0.7-12.6c-0.1-1.8,0.3-3.5,1.2-5.1c5.7-9.9,25.3-51.1-23.7-83.4c-0.4-0.3-0.6-0.7-0.6-1.2
			v-1.9c0-0.8,0.6-1.4,1.4-1.4h58.4C799.1,159,811.3,146.8,811.3,131.8z M441.3,344h-47c-1.1,0-2-0.9-2-2l0,0c0-1.1-0.9-2-2-2h-3
			c-1.1,0-2-0.9-2-2v-7c0-1.1,0.9-2,2-2h5.3c2.3,0,4.2-1.5,4.9-3.7c6.1-20.6,7.5-51.8,7.8-58.8c0-0.8-0.6-1.5-1.4-1.5l0,0
			c-0.8,0-1.5-0.7-1.5-1.5v-13.7c0-1,0.8-1.8,1.8-1.8h7.6c1.5,0,2.7-1.1,2.9-2.6l2.4-22.2c0.2-2,1.6-3.6,3.5-4.1l20.7-6
			c3.4-1,6.6,1.9,6.2,5.3v0.3c-0.5,3.8,0.5,7.6,2.9,10.7c2.8,3.7,5.2,7.7,7.2,11.6c6.7,13.1,10,27.7,10,42.4V331
			c0.5,5.3-5.5,8.6-11.2,10.6C451.4,343.2,446.4,344,441.3,344z"/>
	</g>
</g>
<path class="st3" d="M657.7,328.8L668,384c0,8,8,12,12,12c12,0,36,4,56-12c4-4,8-8,8-12l-4-140l0,0c0-4-4-24-28-40v-4h60
	c8.8,0,16-7.2,16-16v-24c0-8.8-7.2-16-16-16H648c-8.8,0-16-7.2-16-16v-28c0-8.8-7.2-16-16-16H436c-8.8,0-16,7.2-16,16v8
	c0,8.7-7.1,15.9-15.8,16c-47.2,0.7-168.2,13.1-168.2,52c0,0,0,24,28,24h24c8,0,16,8,16,16l-36,160c0,8,0,12,8,16l20,12c4,4,8,8,8,12
	v16c0,4,4,12,8,12c8,4,16,4,24,4c4.4,0,8-3.6,8-8c0-4,0-4,4-8c4-4,8-8,16-8l64,4l0,0c0,0-120,108-144,520.1c0,8,8,16,16,16h452.1
	c8,0,16-8,16-16c0-64-4-320.1-140-516.1l0,0v-28c0-8-8-16-16-16c-8,0-24-4-32-8l0,0c0,0,0,0,0-4c0,0,0-8,0-12c0-4,36,0,36,0
	c8,0,16-8,16-16v-40c0-4,8-8,12-4l8,8c0,3.2,0,9,2,15.2C655.5,319.7,656.8,324.2,657.7,328.8z M472,348c0,4-4,12-12,12h-52
	c-8,0-12-4-12-12l12-96c0-4,4-8,8-8l40-12c8,0,12,4,12,8L472,348L472,348z"/>
<g>
	<path d="M428,416l-64-4c-8,0-12,4-16,8c-4,4-4,4-4,8c0,4-4,8-8,8c-8,0-16,0-24-4c-4,0-8-8-8-12v-16c0-4-4-8-8-12l-20-12
		c-8-4-8-8-8-16l36-160c0-8-8-16-16-16h-24c-28,0-28-24-28-24c0-40,128-52,172-52c8,0,12-8,12-16v-8c0-8,8-16,16-16h180
		c8,0,16,8,16,16v28c0,8,8,16,16,16h124c8,0,16,8,16,16v24c0,8-8,16-16,16h-60v4c24,16,28,36,28,40l1.4,50.6L1024,0H0v1024
		l309.9-309.9C353.2,483.2,428,416,428,416z"/>
	<path d="M456,231.9l-40,12c-4,0-8,4-8,8l-12,96c0,8,4,12,12,12h52c8,0,12-8,12-12l-4-108C468,235.9,464,231.9,456,231.9z"/>
	<path d="M652.6,308.8c-1-6.4-4-12.3-8.6-16.8l0,0c-4-4-12,0-12,4v40c0,8-8,16-16,16c0,0-36-4-36,0c0,4,0,12,0,12c0,4,0,4,0,4
		c8,4,24,8,32,8c8,0,16,8,16,16v4l35.6-35.6l-7.6-40.4C654.1,316.1,653.1,312.2,652.6,308.8z"/>
	<path d="M628,396L309.9,714.1c-11.6,61.7-20.9,135.1-26,222c0,8,8,16,16,16h452.1c8,0,16-8,16-16c0-64-4-320.1-140-516.1V396z"/>
	<path d="M668,384c0,8,8,12,12,12c12,0,36,4,56-12c4-4,8-8,8-12l-2.6-89.5l-77.9,77.9L668,384z"/>
</g>
</svg>
